<svg width="1465" height="275" viewBox="0 0 1465 275" fill="none" xmlns="http://www.w3.org/2000/svg">
<path d="M0.128842 270L126.331 0.386989H183.695L310.662 270H239.912L207.406 195.809L234.558 215.313H76.2324L103.002 195.809L70.8784 270H0.128842ZM154.63 73.0486L109.886 179.747L99.1782 161.772H211.23L201.669 179.747L156.543 73.0486H154.63ZM327.318 270V0.386989H398.068V211.488H513.562V270H327.318ZM548.411 270V0.386989H619.16V211.488H734.654V270H548.411ZM769.503 270V0.386989H840.252V270H769.503ZM1009.83 274.207C969.551 274.207 939.339 264.264 919.197 244.377C899.056 224.491 888.985 194.789 888.985 155.271V0.386989H959.352V155.653C959.352 175.285 963.432 190.2 971.59 200.398C979.749 210.341 992.496 215.313 1009.83 215.313C1027.17 215.313 1039.92 210.341 1048.08 200.398C1056.23 190.2 1060.31 175.285 1060.31 155.653V0.386989H1129.92V155.271C1129.92 194.789 1119.97 224.491 1100.09 244.377C1080.2 264.264 1050.12 274.207 1009.83 274.207ZM1178.48 270V0.386989H1239.66L1328.01 198.103H1315.39L1403.34 0.386989H1464.92V270H1401.05V104.79H1417.49L1341.01 270H1301.24L1224.37 104.79H1241.96V270H1178.48Z" fill="#365314"/>
</svg>
