<svg xmlns="http://www.w3.org/2000/svg" xmlns:xlink="http://www.w3.org/1999/xlink" width="2500" zoomAndPan="magnify" viewBox="0 0 1874.88 1874.999927" height="2500" preserveAspectRatio="xMidYMid meet" version="1.0"><defs><g/><clipPath id="41c1e03347"><path d="M 0 0.0585938 L 1874.761719 0.0585938 L 1874.761719 1874.9375 L 0 1874.9375 Z M 0 0.0585938 " clip-rule="nonzero"/></clipPath><clipPath id="8ebde31d13"><path d="M 0 988 L 793 988 L 793 1874.9375 L 0 1874.9375 Z M 0 988 " clip-rule="nonzero"/></clipPath><clipPath id="ac4b3c7153"><path d="M 109 1016 L 1033 1016 L 1033 1874.9375 L 109 1874.9375 Z M 109 1016 " clip-rule="nonzero"/></clipPath><clipPath id="634a5b6f32"><path d="M 343 1031 L 1263 1031 L 1263 1874.9375 L 343 1874.9375 Z M 343 1031 " clip-rule="nonzero"/></clipPath><clipPath id="f156f71a18"><path d="M 573 1037 L 1373 1037 L 1373 1874.9375 L 573 1874.9375 Z M 573 1037 " clip-rule="nonzero"/></clipPath><clipPath id="1250f387f0"><path d="M 690 1029 L 1655 1029 L 1655 1874.9375 L 690 1874.9375 Z M 690 1029 " clip-rule="nonzero"/></clipPath><clipPath id="12b3fb6e08"><path d="M 988 985 L 1874.761719 985 L 1874.761719 1874.9375 L 988 1874.9375 Z M 988 985 " clip-rule="nonzero"/></clipPath></defs><g clip-path="url(#41c1e03347)"><path fill="#365314" d="M 283.214844 0.0585938 L 1591.871094 0.0585938 C 1669.800781 0.0585938 1740.613281 31.910156 1791.914062 83.210938 C 1843.234375 134.535156 1875.085938 205.347656 1875.085938 283.273438 L 1875.085938 1591.933594 C 1875.085938 1669.859375 1843.234375 1740.671875 1791.914062 1791.972656 C 1740.613281 1843.296875 1669.800781 1875.144531 1591.871094 1875.144531 L 283.214844 1875.144531 C 205.289062 1875.144531 134.472656 1843.296875 83.171875 1791.972656 C 31.851562 1740.671875 0 1669.859375 0 1591.933594 L 0 283.273438 C 0 205.347656 31.851562 134.535156 83.171875 83.210938 C 134.472656 31.910156 205.289062 0.0585938 283.214844 0.0585938 " fill-opacity="1" fill-rule="nonzero"/></g><path fill="#fefbef" d="M 1637.992188 955.730469 C 1609.347656 895.925781 1519.753906 818.246094 1460.40625 764.855469 L 1431.535156 739.421875 C 1379.976562 693.59375 1346.292969 667.699219 1319.253906 647.765625 C 1296.035156 631.660156 1274.417969 613.636719 1254.40625 593.6875 C 1154.042969 489.425781 1139.835938 334.066406 1208.578125 131.046875 L 1058.03125 176.875 C 1056.753906 177.277344 1055.457031 177.621094 1054.148438 177.910156 C 1052.839844 178.195312 1051.519531 178.425781 1050.191406 178.597656 C 1048.863281 178.769531 1047.527344 178.882812 1046.1875 178.9375 C 1044.847656 178.992188 1043.507812 178.988281 1042.171875 178.925781 C 1040.832031 178.859375 1039.5 178.738281 1038.167969 178.558594 C 1036.839844 178.378906 1035.523438 178.140625 1034.214844 177.847656 C 1032.910156 177.550781 1031.617188 177.199219 1030.339844 176.789062 C 1029.0625 176.378906 1027.808594 175.914062 1026.570312 175.398438 C 1025.335938 174.878906 1024.125 174.304688 1022.941406 173.679688 C 1021.753906 173.054688 1020.597656 172.378906 1019.472656 171.652344 C 1018.347656 170.925781 1017.253906 170.148438 1016.195312 169.328125 C 1015.136719 168.503906 1014.117188 167.636719 1013.136719 166.722656 C 1012.152344 165.8125 1011.210938 164.859375 1010.3125 163.863281 C 1009.414062 162.867188 1008.5625 161.835938 1007.753906 160.765625 C 1006.945312 159.699219 1006.1875 158.59375 1005.476562 157.457031 C 1004.765625 156.320312 1004.105469 155.15625 1003.496094 153.960938 L 953.085938 50.617188 L 934.066406 165.191406 C 933.792969 166.894531 933.425781 168.578125 932.960938 170.238281 C 932.5 171.902344 931.941406 173.535156 931.296875 175.132812 C 930.648438 176.734375 929.914062 178.292969 929.089844 179.808594 C 928.265625 181.324219 927.359375 182.789062 926.371094 184.203125 C 925.382812 185.621094 924.316406 186.972656 923.175781 188.265625 C 922.03125 189.5625 920.820312 190.785156 919.539062 191.945312 C 918.261719 193.101562 916.917969 194.183594 915.515625 195.1875 C 914.113281 196.191406 912.660156 197.117188 911.152344 197.957031 C 909.636719 198.777344 908.082031 199.511719 906.484375 200.15625 C 904.886719 200.800781 903.257812 201.355469 901.597656 201.816406 C 899.941406 202.277344 898.257812 202.644531 896.558594 202.917969 C 894.859375 203.1875 893.148438 203.363281 891.425781 203.441406 C 889.707031 203.523438 887.984375 203.503906 886.265625 203.390625 C 884.546875 203.273438 882.84375 203.0625 881.148438 202.757812 C 879.453125 202.449219 877.78125 202.046875 876.128906 201.550781 C 874.480469 201.054688 872.863281 200.46875 871.28125 199.789062 L 750.292969 145.484375 C 796.121094 315.277344 773.207031 451.160156 683.84375 549.921875 C 672.804688 561.347656 661.21875 572.191406 649.085938 582.453125 C 636.953125 592.710938 624.335938 602.335938 611.234375 611.320312 C 598.128906 620.304688 584.605469 628.609375 570.664062 636.230469 C 556.722656 643.851562 542.433594 650.75 527.796875 656.929688 C 510.867188 664.351562 494.320312 672.550781 478.164062 681.53125 C 462.003906 690.511719 446.304688 700.226562 431.0625 710.683594 C 415.816406 721.140625 401.097656 732.292969 386.90625 744.136719 C 372.710938 755.976562 359.105469 768.460938 346.085938 781.582031 C 336.65625 790.980469 327.609375 800.730469 318.941406 810.835938 C 310.277344 820.9375 302.019531 831.367188 294.175781 842.121094 C 286.328125 852.875 278.914062 863.921875 271.9375 875.253906 C 264.957031 886.589844 258.429688 898.183594 252.363281 910.03125 C 246.292969 921.878906 240.695312 933.945312 235.574219 946.230469 C 230.453125 958.519531 225.820312 970.988281 221.675781 983.636719 C 217.535156 996.289062 213.890625 1009.082031 210.753906 1022.019531 C 207.613281 1034.953125 204.988281 1047.996094 202.871094 1061.136719 C 201.5625 1068.914062 200.460938 1076.71875 199.574219 1084.554688 C 198.6875 1092.390625 198.015625 1100.242188 197.554688 1108.117188 C 197.09375 1115.988281 196.847656 1123.867188 196.816406 1131.753906 C 196.785156 1139.636719 196.96875 1147.519531 197.363281 1155.394531 C 197.761719 1163.269531 198.371094 1171.128906 199.195312 1178.96875 C 200.015625 1186.8125 201.050781 1194.628906 202.300781 1202.414062 C 203.546875 1210.199219 205.007812 1217.945312 206.675781 1225.652344 C 208.34375 1233.359375 210.222656 1241.015625 212.304688 1248.621094 C 214.390625 1256.226562 216.679688 1263.769531 219.175781 1271.25 C 221.667969 1278.730469 224.367188 1286.136719 227.261719 1293.46875 C 230.160156 1300.804688 233.253906 1308.054688 236.546875 1315.222656 C 239.835938 1322.386719 243.320312 1329.457031 246.996094 1336.433594 C 250.671875 1343.410156 254.53125 1350.28125 258.582031 1357.050781 C 262.628906 1363.816406 266.859375 1370.46875 271.269531 1377.003906 C 275.679688 1383.542969 280.261719 1389.953125 285.023438 1396.242188 C 289.78125 1402.53125 294.707031 1408.683594 299.800781 1414.703125 C 299.089844 1386.738281 299.515625 1358.789062 301.085938 1330.855469 C 302.652344 1302.921875 305.355469 1275.101562 309.195312 1247.390625 C 313.035156 1219.679688 317.992188 1192.171875 324.074219 1164.863281 C 330.15625 1137.558594 337.34375 1110.542969 345.628906 1083.824219 C 356.320312 1053.4375 368.542969 1023.683594 382.296875 994.558594 C 396.046875 965.429688 411.257812 937.085938 427.925781 909.523438 C 444.59375 881.960938 462.632812 855.328125 482.039062 829.621094 C 501.449219 803.914062 522.125 779.269531 544.066406 755.691406 C 545.070312 754.5625 546.128906 753.488281 547.238281 752.464844 C 548.351562 751.441406 549.507812 750.476562 550.714844 749.566406 C 551.921875 748.65625 553.167969 747.808594 554.457031 747.023438 C 555.746094 746.234375 557.070312 745.511719 558.433594 744.855469 C 559.792969 744.199219 561.179688 743.613281 562.597656 743.09375 C 564.015625 742.570312 565.457031 742.121094 566.917969 741.746094 C 568.382812 741.367188 569.859375 741.0625 571.351562 740.828125 C 572.84375 740.59375 574.34375 740.433594 575.851562 740.347656 C 577.359375 740.261719 578.867188 740.253906 580.375 740.316406 C 581.886719 740.378906 583.386719 740.515625 584.882812 740.722656 C 586.378906 740.933594 587.859375 741.21875 589.328125 741.574219 C 590.796875 741.929688 592.242188 742.355469 593.667969 742.855469 C 595.09375 743.355469 596.492188 743.921875 597.863281 744.554688 C 599.234375 745.191406 600.570312 745.894531 601.871094 746.660156 C 603.171875 747.425781 604.429688 748.257812 605.652344 749.148438 C 606.871094 750.039062 608.042969 750.988281 609.171875 751.992188 C 610.296875 753 611.371094 754.058594 612.394531 755.167969 C 613.414062 756.28125 614.378906 757.441406 615.289062 758.648438 C 616.195312 759.855469 617.042969 761.101562 617.828125 762.394531 C 618.613281 763.683594 619.335938 765.007812 619.992188 766.367188 C 620.644531 767.730469 621.234375 769.121094 621.75 770.539062 C 622.269531 771.957031 622.71875 773.398438 623.09375 774.859375 C 623.472656 776.320312 623.777344 777.800781 624.007812 779.292969 C 624.238281 780.785156 624.398438 782.285156 624.480469 783.792969 C 624.566406 785.300781 624.578125 786.808594 624.511719 788.316406 C 624.449219 789.828125 624.3125 791.328125 624.097656 792.824219 C 623.886719 794.320312 623.601562 795.800781 623.246094 797.269531 C 622.886719 798.738281 622.460938 800.183594 621.960938 801.609375 C 621.460938 803.035156 620.890625 804.429688 620.253906 805.800781 C 619.617188 807.171875 618.914062 808.503906 618.148438 809.804688 C 617.378906 811.105469 616.550781 812.367188 615.65625 813.585938 C 614.765625 814.804688 613.816406 815.976562 612.808594 817.101562 C 592.917969 838.386719 574.167969 860.632812 556.554688 883.839844 C 538.945312 907.046875 522.566406 931.089844 507.421875 955.976562 C 492.273438 980.863281 478.4375 1006.457031 465.914062 1032.757812 C 453.390625 1059.0625 442.242188 1085.9375 432.472656 1113.382812 C 423.523438 1142.988281 415.980469 1172.949219 409.835938 1203.257812 C 403.691406 1233.570312 398.976562 1264.105469 395.6875 1294.859375 C 392.402344 1325.613281 390.558594 1356.453125 390.15625 1387.378906 C 389.757812 1418.304688 390.800781 1449.179688 393.289062 1480.007812 C 393.289062 1489.175781 393.289062 1496.738281 393.289062 1502.925781 C 406.550781 1512.054688 420.070312 1520.789062 433.847656 1529.125 C 447.625 1537.464844 461.632812 1545.386719 475.878906 1552.894531 C 490.121094 1560.40625 504.574219 1567.492188 519.234375 1574.148438 C 533.894531 1580.808594 548.742188 1587.027344 563.769531 1592.8125 C 578.796875 1598.597656 593.980469 1603.933594 609.324219 1608.820312 C 624.664062 1613.710938 640.136719 1618.140625 655.742188 1622.117188 C 671.34375 1626.09375 687.050781 1629.609375 702.863281 1632.660156 C 718.671875 1635.710938 734.558594 1638.292969 750.523438 1640.410156 C 664.59375 1540.503906 609.140625 1370.707031 609.140625 1174.332031 C 608.800781 1144.4375 609.992188 1114.605469 612.722656 1084.835938 C 615.453125 1055.0625 619.707031 1025.511719 625.480469 996.175781 C 631.253906 966.84375 638.519531 937.882812 647.277344 909.300781 C 656.035156 880.714844 666.238281 852.65625 677.882812 825.121094 C 678.503906 823.75 679.1875 822.414062 679.9375 821.113281 C 680.6875 819.808594 681.5 818.546875 682.375 817.324219 C 683.25 816.101562 684.183594 814.925781 685.171875 813.796875 C 686.164062 812.664062 687.207031 811.585938 688.300781 810.554688 C 689.398438 809.527344 690.542969 808.554688 691.734375 807.640625 C 692.925781 806.722656 694.160156 805.867188 695.433594 805.074219 C 696.710938 804.277344 698.023438 803.546875 699.371094 802.882812 C 700.71875 802.214844 702.09375 801.617188 703.5 801.085938 C 704.90625 800.558594 706.335938 800.097656 707.785156 799.707031 C 709.238281 799.316406 710.707031 798.996094 712.1875 798.75 C 713.671875 798.503906 715.164062 798.332031 716.664062 798.234375 C 718.160156 798.132812 719.664062 798.109375 721.164062 798.15625 C 722.667969 798.203125 724.164062 798.324219 725.652344 798.519531 C 727.144531 798.714844 728.621094 798.980469 730.085938 799.320312 C 731.550781 799.660156 732.992188 800.074219 734.417969 800.554688 C 735.839844 801.035156 737.238281 801.585938 738.605469 802.207031 C 739.976562 802.824219 741.3125 803.511719 742.617188 804.261719 C 743.917969 805.011719 745.179688 805.824219 746.402344 806.699219 C 747.625 807.574219 748.800781 808.503906 749.933594 809.496094 C 751.0625 810.484375 752.144531 811.527344 753.171875 812.625 C 754.199219 813.71875 755.171875 814.863281 756.089844 816.054688 C 757.003906 817.246094 757.859375 818.480469 758.65625 819.757812 C 759.449219 821.03125 760.179688 822.34375 760.847656 823.691406 C 761.511719 825.039062 762.109375 826.414062 762.640625 827.820312 C 763.171875 829.226562 763.632812 830.65625 764.023438 832.109375 C 764.414062 833.558594 764.730469 835.027344 764.976562 836.511719 C 765.222656 837.992188 765.394531 839.484375 765.496094 840.984375 C 765.59375 842.484375 765.621094 843.984375 765.574219 845.488281 C 765.523438 846.988281 765.402344 848.484375 765.207031 849.976562 C 765.015625 851.464844 764.746094 852.945312 764.40625 854.40625 C 764.066406 855.871094 763.65625 857.316406 763.171875 858.738281 C 762.691406 860.164062 762.140625 861.558594 761.523438 862.929688 C 751.15625 887.484375 742.085938 912.507812 734.3125 938 C 726.539062 963.492188 720.101562 989.320312 715 1015.480469 C 709.898438 1041.640625 706.160156 1067.992188 703.789062 1094.539062 C 701.414062 1121.085938 700.417969 1147.683594 700.800781 1174.332031 C 701.714844 1427.535156 808.039062 1642.472656 933.609375 1642.472656 C 1059.175781 1642.472656 1165.5 1427.535156 1165.5 1173.417969 C 1165.96875 1145.523438 1164.90625 1117.6875 1162.3125 1089.914062 C 1159.71875 1062.136719 1155.609375 1034.585938 1149.984375 1007.261719 C 1144.355469 979.9375 1137.246094 953.003906 1128.65625 926.464844 C 1120.0625 899.921875 1110.042969 873.929688 1098.589844 848.492188 C 1097.832031 847.136719 1097.144531 845.746094 1096.53125 844.316406 C 1095.914062 842.890625 1095.371094 841.4375 1094.902344 839.953125 C 1094.4375 838.472656 1094.042969 836.96875 1093.730469 835.449219 C 1093.414062 833.925781 1093.175781 832.390625 1093.019531 830.847656 C 1092.859375 829.300781 1092.777344 827.75 1092.777344 826.195312 C 1092.777344 824.640625 1092.851562 823.09375 1093.007812 821.546875 C 1093.164062 820 1093.398438 818.464844 1093.710938 816.941406 C 1094.023438 815.421875 1094.414062 813.917969 1094.878906 812.433594 C 1095.34375 810.953125 1095.882812 809.496094 1096.496094 808.070312 C 1097.109375 806.640625 1097.792969 805.246094 1098.550781 803.886719 C 1099.304688 802.53125 1100.125 801.214844 1101.015625 799.9375 C 1101.90625 798.664062 1102.855469 797.4375 1103.871094 796.257812 C 1104.882812 795.082031 1105.953125 793.957031 1107.082031 792.890625 C 1108.210938 791.820312 1109.390625 790.8125 1110.621094 789.863281 C 1111.851562 788.914062 1113.128906 788.027344 1114.449219 787.210938 C 1115.769531 786.390625 1117.128906 785.640625 1118.523438 784.960938 C 1119.921875 784.277344 1121.347656 783.671875 1122.808594 783.132812 C 1124.265625 782.597656 1125.75 782.136719 1127.253906 781.753906 C 1128.761719 781.367188 1130.28125 781.0625 1131.820312 780.832031 C 1133.355469 780.601562 1134.902344 780.449219 1136.453125 780.375 C 1138.007812 780.304688 1139.558594 780.308594 1141.109375 780.394531 C 1142.660156 780.480469 1144.207031 780.640625 1145.742188 780.882812 C 1147.277344 781.125 1148.796875 781.445312 1150.296875 781.84375 C 1151.800781 782.238281 1153.277344 782.710938 1154.734375 783.257812 C 1156.1875 783.804688 1157.613281 784.421875 1159.003906 785.117188 C 1160.394531 785.808594 1161.75 786.566406 1163.0625 787.398438 C 1164.375 788.226562 1165.644531 789.121094 1166.871094 790.078125 C 1168.09375 791.039062 1169.265625 792.054688 1170.382812 793.132812 C 1171.503906 794.210938 1172.566406 795.34375 1173.570312 796.527344 C 1174.574219 797.714844 1175.515625 798.949219 1176.394531 800.230469 C 1177.277344 801.511719 1178.085938 802.832031 1178.832031 804.199219 C 1179.578125 805.5625 1180.25 806.960938 1180.851562 808.394531 C 1187.347656 822.652344 1193.441406 837.082031 1199.136719 851.679688 C 1204.832031 866.277344 1210.121094 881.023438 1215 895.914062 C 1219.878906 910.804688 1224.34375 925.816406 1228.394531 940.953125 C 1232.445312 956.089844 1236.070312 971.328125 1239.277344 986.667969 C 1242.484375 1002.003906 1245.261719 1017.421875 1247.617188 1032.910156 C 1249.96875 1048.402344 1251.894531 1063.949219 1253.386719 1079.546875 C 1254.878906 1095.144531 1255.941406 1110.773438 1256.570312 1126.429688 C 1257.199219 1142.085938 1257.394531 1157.75 1257.15625 1173.417969 C 1257.15625 1372.542969 1200.101562 1544.398438 1112.109375 1643.617188 C 1148.316406 1637.90625 1183.976562 1629.773438 1219.078125 1619.222656 C 1254.183594 1608.671875 1288.417969 1595.796875 1321.773438 1580.601562 C 1350.503906 1567.28125 1378.152344 1552.003906 1404.722656 1534.773438 C 1405.527344 1528.421875 1407.511719 1522.464844 1410.683594 1516.902344 C 1469.570312 1416.765625 1527.085938 1259.117188 1465.675781 1077.863281 C 1457.820312 1055.761719 1448.742188 1034.175781 1438.441406 1013.097656 C 1428.144531 992.023438 1416.691406 971.59375 1404.082031 951.816406 C 1391.472656 932.035156 1377.789062 913.027344 1363.03125 894.792969 C 1348.273438 876.5625 1332.535156 859.21875 1315.816406 842.765625 C 1314.765625 841.691406 1313.769531 840.570312 1312.832031 839.398438 C 1311.890625 838.226562 1311.007812 837.011719 1310.1875 835.753906 C 1309.367188 834.5 1308.609375 833.203125 1307.917969 831.871094 C 1307.222656 830.539062 1306.59375 829.175781 1306.035156 827.78125 C 1305.476562 826.390625 1304.984375 824.972656 1304.5625 823.53125 C 1304.144531 822.089844 1303.792969 820.628906 1303.515625 819.152344 C 1303.238281 817.675781 1303.035156 816.191406 1302.902344 814.695312 C 1302.773438 813.199219 1302.714844 811.699219 1302.730469 810.199219 C 1302.746094 808.695312 1302.835938 807.199219 1303 805.707031 C 1303.160156 804.214844 1303.398438 802.730469 1303.707031 801.261719 C 1304.015625 799.792969 1304.394531 798.339844 1304.847656 796.910156 C 1305.296875 795.476562 1305.816406 794.070312 1306.40625 792.6875 C 1306.996094 791.308594 1307.652344 789.957031 1308.375 788.640625 C 1309.097656 787.324219 1309.878906 786.046875 1310.726562 784.804688 C 1311.574219 783.566406 1312.480469 782.371094 1313.445312 781.21875 C 1314.414062 780.070312 1315.429688 778.96875 1316.503906 777.917969 C 1317.578125 776.867188 1318.699219 775.871094 1319.871094 774.929688 C 1321.042969 773.992188 1322.257812 773.109375 1323.511719 772.289062 C 1324.769531 771.46875 1326.066406 770.710938 1327.398438 770.015625 C 1328.730469 769.320312 1330.09375 768.695312 1331.484375 768.136719 C 1332.878906 767.574219 1334.296875 767.085938 1335.738281 766.664062 C 1337.179688 766.242188 1338.640625 765.894531 1340.117188 765.617188 C 1341.589844 765.339844 1343.078125 765.136719 1344.574219 765.003906 C 1346.070312 764.871094 1347.570312 764.816406 1349.070312 764.832031 C 1350.574219 764.847656 1352.070312 764.9375 1353.5625 765.097656 C 1355.054688 765.261719 1356.539062 765.496094 1358.007812 765.804688 C 1359.476562 766.113281 1360.929688 766.496094 1362.359375 766.945312 C 1363.792969 767.398438 1365.199219 767.917969 1366.582031 768.507812 C 1367.960938 769.097656 1369.3125 769.753906 1370.628906 770.472656 C 1371.945312 771.195312 1373.222656 771.980469 1374.464844 772.828125 C 1375.703125 773.675781 1376.898438 774.582031 1378.050781 775.546875 C 1379.199219 776.511719 1380.300781 777.53125 1381.351562 778.605469 C 1400.457031 797.539062 1418.433594 817.488281 1435.285156 838.453125 C 1452.132812 859.417969 1467.75 881.265625 1482.132812 903.996094 C 1496.515625 926.726562 1509.570312 950.195312 1521.300781 974.398438 C 1533.03125 998.601562 1543.363281 1023.390625 1552.292969 1048.761719 C 1556.964844 1062.632812 1561.113281 1076.660156 1564.734375 1090.84375 C 1568.355469 1105.023438 1571.4375 1119.324219 1573.988281 1133.734375 C 1576.539062 1148.148438 1578.542969 1162.636719 1580.007812 1177.199219 C 1581.46875 1191.765625 1582.386719 1206.363281 1582.753906 1220.996094 C 1583.121094 1235.625 1582.941406 1250.25 1582.214844 1264.871094 C 1581.484375 1279.488281 1580.210938 1294.058594 1578.390625 1308.582031 C 1576.570312 1323.105469 1574.210938 1337.542969 1571.304688 1351.886719 C 1568.402344 1366.234375 1564.96875 1380.449219 1561 1394.539062 C 1578.738281 1372.148438 1594.5625 1348.480469 1608.476562 1323.53125 C 1622.394531 1298.585938 1634.214844 1272.683594 1643.949219 1245.824219 C 1646.234375 1240.054688 1648.375 1234.230469 1650.371094 1228.351562 C 1652.371094 1222.472656 1654.21875 1216.546875 1655.921875 1210.574219 C 1657.621094 1204.605469 1659.175781 1198.597656 1660.578125 1192.546875 C 1661.980469 1186.5 1663.234375 1180.421875 1664.335938 1174.3125 C 1665.4375 1168.203125 1666.382812 1162.066406 1667.179688 1155.910156 C 1667.976562 1149.753906 1668.617188 1143.578125 1669.109375 1137.390625 C 1669.597656 1131.203125 1669.933594 1125.003906 1670.113281 1118.796875 C 1670.292969 1112.59375 1670.320312 1106.386719 1670.195312 1100.179688 C 1670.066406 1093.972656 1669.785156 1087.769531 1669.347656 1081.578125 C 1668.914062 1075.386719 1668.324219 1069.207031 1667.582031 1063.042969 C 1666.839844 1056.878906 1665.941406 1050.738281 1664.894531 1044.617188 C 1663.847656 1038.5 1662.648438 1032.410156 1661.296875 1026.347656 C 1659.945312 1020.289062 1658.445312 1014.265625 1656.792969 1008.28125 C 1655.144531 1002.296875 1653.34375 996.355469 1651.398438 990.460938 C 1649.453125 984.566406 1647.363281 978.722656 1645.128906 972.929688 C 1642.890625 967.136719 1640.511719 961.40625 1637.992188 955.730469 Z M 1637.992188 955.730469 " fill-opacity="1" fill-rule="nonzero"/><g clip-path="url(#8ebde31d13)"><path stroke-linecap="butt" transform="matrix(1.090546, 0.140624, -0.140624, 1.090546, 179.844443, 1230.213905)" fill="none" stroke-linejoin="miter" d="M 283.960923 375.788984 L 284.769591 364.587917 L 212.012973 89.303777 L 174.474066 87.689741 L 108.27869 88.900507 L 8.273814 363.78126 L 5.753278 366.706754 L 4.136988 369.533556 L 7.46597 373.266481 L 102.526493 373.265903 L 103.330861 364.587062 L 124.827124 296.373457 L 179.01409 296.370875 L 181.840458 366.706373 L 183.556078 370.844344 L 187.693822 373.265873 Z M 136.835102 224.522685 L 159.541101 154.996126 L 167.008108 179.819515 L 173.162302 222.406585 L 154.190945 223.61715 L 150.457424 224.52483 Z M 136.835102 224.522685 " stroke="#365314" stroke-width="56.833286" stroke-opacity="1" stroke-miterlimit="4"/></g><g clip-path="url(#ac4b3c7153)"><path stroke-linecap="butt" transform="matrix(1.096623, 0.0805268, -0.0805268, 1.096623, 480.210853, 1268.11343)" fill="none" stroke-linejoin="miter" d="M 12.413157 376.999312 L 14.025417 379.018165 L 77.298416 379.016866 L 91.323703 378.211376 L 126.442186 378.211509 L 131.486204 377.000469 L 195.059844 373.67149 L 199.196635 371.6508 L 202.930945 365.798378 L 202.930414 295.162517 L 202.12567 289.005794 L 197.178024 283.961882 L 187.694831 281.135359 L 125.632684 281.133232 L 114.534415 282.749663 L 99.598618 282.749305 L 108.275476 114.128368 L 105.856331 96.367412 L 102.523371 93.035836 L 82.647319 91.827375 L 41.374482 93.440403 L 28.15351 91.422662 L 14.834806 91.421107 Z M 12.413157 376.999312 " stroke="#365314" stroke-width="56.833286" stroke-opacity="1" stroke-miterlimit="4"/></g><g clip-path="url(#634a5b6f32)"><path stroke-linecap="butt" transform="matrix(1.099162, 0.0301516, -0.0301516, 1.099162, 694.844562, 1284.16101)" fill="none" stroke-linejoin="miter" d="M 12.412775 376.998751 L 14.028337 379.019217 L 77.297383 379.017931 L 91.323572 378.210265 L 126.442649 378.209989 L 131.487855 376.998331 L 195.060096 373.669438 L 199.198265 371.651062 L 202.932734 365.7985 L 202.931926 295.162323 L 202.123312 289.00437 L 197.180196 283.962016 L 187.692041 281.134 L 125.634821 281.134028 L 114.534293 282.7499 L 99.597516 282.750946 L 108.277539 114.128167 L 105.853523 96.36858 L 102.524596 93.037546 L 82.646732 91.827226 L 41.374059 93.442718 L 28.155252 91.424254 L 14.835427 91.42359 Z M 12.412775 376.998751 " stroke="#365314" stroke-width="56.833286" stroke-opacity="1" stroke-miterlimit="4"/></g><g clip-path="url(#f156f71a18)"><path stroke-linecap="butt" transform="matrix(1.099546, -0.00805481, 0.00805481, 1.099546, 913.008926, 1289.350438)" fill="none" stroke-linejoin="miter" d="M 17.355641 376.998906 L 87.590116 373.669498 L 91.323869 371.249107 L 93.845843 362.57081 L 94.24995 95.965155 L 52.876477 93.036697 L 33.099132 93.037473 L 19.477259 92.230717 L 14.43139 93.845714 L 12.410446 97.173908 Z M 17.355641 376.998906 " stroke="#365314" stroke-width="56.833286" stroke-opacity="1" stroke-miterlimit="4"/></g><g clip-path="url(#1250f387f0)"><path stroke-linecap="butt" transform="matrix(1.098324, -0.0524374, 0.0524374, 1.098324, 1019.330252, 1290.472198)" fill="none" stroke-linejoin="miter" d="M 100.808056 373.670622 L 120.689168 375.384467 L 145.1085 375.383773 L 170.739347 367.513361 L 190.115614 359.241196 L 202.122858 350.965753 L 211.609767 337.747295 L 225.635891 321.601559 L 233.105307 305.050315 L 240.571953 269.933728 L 245.515177 226.139596 L 245.517301 157.114101 L 243.901762 128.154196 L 242.993605 121.997121 L 242.1873 107.9707 L 240.569527 102.523066 L 237.240426 97.98245 L 217.360265 96.770124 L 157.92567 97.983446 L 154.999785 101.311395 L 153.383773 205.85383 L 152.477108 214.93666 L 151.667741 266.603198 L 149.2474 276.99726 L 145.107896 286.078676 L 138.448633 291.024442 L 130.578497 291.83303 L 125.228538 294.757165 L 116.550461 294.758964 L 107.064498 289.408699 L 102.928032 284.868659 L 95.865789 269.128051 L 95.86388 214.936749 L 98.387431 197.985773 L 102.120729 131.48574 L 104.543815 111.201033 L 104.544456 99.194138 L 105.351664 96.366094 L 105.351132 93.844472 L 102.928097 90.513664 L 81.433782 90.109855 L 65.288806 87.688803 L 50.857419 89.30445 L 30.575015 90.110825 L 30.576836 87.688899 L 28.556733 87.68848 L 26.034399 93.439926 L 14.832218 179.012825 L 12.412479 218.670241 L 16.550898 275.687326 L 22.704863 302.630394 L 30.979131 324.12291 L 41.776423 345.213071 L 58.325554 358.835224 L 80.224067 368.725877 L 91.727998 370.843551 Z M 100.808056 373.670622 " stroke="#365314" stroke-width="56.833286" stroke-opacity="1" stroke-miterlimit="4"/></g><g clip-path="url(#12b3fb6e08)"><path stroke-linecap="butt" transform="matrix(1.091895, -0.129733, 0.129733, 1.091895, 1283.778099, 1280.870701)" fill="none" stroke-linejoin="miter" d="M 28.559455 374.98084 L 45.007665 376.194582 L 73.563488 376.192381 L 102.120504 374.072446 L 106.663026 373.267025 L 109.08324 370.84284 L 109.084689 349.753682 L 117.357273 250.55958 L 118.165017 248.036826 L 128.156136 267.916323 L 141.781142 311.710253 L 145.512352 315.44487 L 152.073517 315.444536 L 169.025884 312.113944 L 188.499502 309.995174 L 195.463702 308.379192 L 200.912245 308.379031 L 204.646861 304.647821 L 216.958913 272.052921 L 241.782665 220.388307 L 253.790827 338.552275 L 257.120627 350.964707 L 257.926008 357.52493 L 259.540837 364.589162 L 264.081564 369.128305 L 274.07357 369.12777 L 298.391209 364.990856 L 334.82307 370.843497 L 363.680455 372.458379 L 366.609461 369.937236 L 366.607774 360.045263 L 351.369134 234.414029 L 325.740944 107.974089 L 322.814621 98.789989 L 316.655699 92.634738 L 303.339005 89.303129 L 274.075058 89.303477 L 261.65966 91.423731 L 228.157237 92.22985 L 221.093527 94.653255 L 209.995636 110.796417 L 203.739993 121.594154 L 177.299678 160.849553 L 161.153164 134.815225 L 147.530468 117.859933 L 129.366895 100.100386 L 129.366103 95.560451 L 126.441966 92.229392 L 109.487974 88.497816 L 69.831471 88.497615 L 51.26139 93.038377 L 45.914613 98.384674 L 43.392502 105.851752 L 42.585735 123.210492 L 14.026323 334.012557 L 14.027731 358.028445 L 12.410621 369.531139 L 14.028186 372.055855 Z M 28.559455 374.98084 " stroke="#365314" stroke-width="56.833286" stroke-opacity="1" stroke-miterlimit="4"/></g><g fill="#fefbef" fill-opacity="1"><g transform="translate(126.829086, 1641.349803)"><g><path d="M 309.84375 38.59375 L 312.3125 26.515625 L 271.6875 -283.90625 L 230.90625 -291 L 158.609375 -298.9375 L 10.875 -13.265625 L 7.765625 -10.453125 L 5.5625 -7.546875 L 8.65625 -3.015625 L 112.328125 10.359375 L 114.4375 1 L 147.453125 -70.34375 L 206.5 -62.71875 L 199.78125 14.3125 L 201.015625 19.0625 L 205.171875 22.328125 Z M 170.65625 -147.09375 L 205.21875 -219.625 L 209.8125 -191.53125 L 210.59375 -144.234375 L 189.6875 -145.546875 L 185.53125 -145.171875 Z M 170.65625 -147.09375 "/></g></g></g><g fill="#fefbef" fill-opacity="1"><g transform="translate(449.852237, 1681.540225)"><g><path d="M 13.609375 1 L 15.234375 3.390625 L 84.578125 8.484375 L 100.078125 8.71875 L 138.609375 11.546875 L 144.140625 10.578125 L 214.203125 12.078125 L 218.90625 10.15625 L 223.453125 4.109375 L 229.15625 -73.40625 L 228.75 -80.265625 L 223.703125 -86.109375 L 213.515625 -90.046875 L 145.5 -95.046875 L 133.140625 -94.125 L 116.828125 -95.328125 L 139.9375 -279.546875 L 138.625 -299.25 L 135.28125 -303.140625 L 113.609375 -306.09375 L 68.15625 -307.609375 L 53.828125 -310.9375 L 39.3125 -312 Z M 13.609375 1 "/></g></g></g><g fill="#fefbef" fill-opacity="1"><g transform="translate(683.477405, 1698.545076)"><g><path d="M 13.640625 0.375 L 15.390625 2.6875 L 84.890625 4.59375 L 100.375 4.109375 L 139 5.171875 L 144.46875 3.96875 L 214.53125 2.234375 L 219.140625 0.09375 L 223.421875 -6.140625 L 225.546875 -83.828125 L 224.828125 -90.6875 L 219.515625 -96.296875 L 209.15625 -99.734375 L 141 -101.609375 L 128.6875 -100.125 L 112.328125 -100.578125 L 126.953125 -285.671875 L 124.765625 -305.28125 L 121.234375 -309.015625 L 99.453125 -310.96875 L 53.984375 -310.40625 L 39.5 -313.078125 L 24.96875 -313.46875 Z M 13.640625 0.375 "/></g></g></g><g fill="#fefbef" fill-opacity="1"><g transform="translate(916.04559, 1703.879281)"><g><path d="M 19.09375 -0.140625 L 96.3125 -4.34375 L 100.390625 -7.09375 L 103.0625 -16.65625 L 101.359375 -309.796875 L 55.890625 -312.640625 L 34.078125 -312.484375 L 19.0625 -313.28125 L 13.625 -311.421875 L 11.390625 -307.765625 Z M 19.09375 -0.140625 "/></g></g></g><g fill="#fefbef" fill-opacity="1"><g transform="translate(1039.099165, 1704.540509)"><g><path d="M 110.59375 -8.921875 L 132.453125 -8.140625 L 159.25 -9.421875 L 186.984375 -19.390625 L 207.890625 -29.5 L 220.640625 -39.1875 L 230.375 -54.21875 L 244.96875 -72.671875 L 252.265625 -91.203125 L 258.609375 -130.1875 L 261.75 -178.578125 L 258.125 -254.375 L 254.78125 -286.0625 L 253.546875 -292.84375 L 251.90625 -308.234375 L 249.828125 -314.046875 L 245.953125 -318.875 L 224.09375 -319.1875 L 158.78125 -314.71875 L 155.796875 -310.921875 L 159.453125 -195.984375 L 159.015625 -185.953125 L 160.828125 -129.15625 L 158.625 -117.6875 L 154.578125 -107.484375 L 147.578125 -101.6875 L 138.96875 -100.359375 L 133.234375 -96.890625 L 123.71875 -96.4375 L 112.984375 -101.84375 L 108.21875 -106.625 L 99.65625 -123.515625 L 96.8125 -182.984375 L 98.65625 -201.734375 L 99.25 -275.015625 L 100.921875 -297.390625 L 100.296875 -310.546875 L 101.046875 -313.765625 L 100.921875 -316.5 L 98.03125 -319.984375 L 74.375 -319.3125 L 56.5625 -321.203125 L 40.765625 -318.640625 L 18.546875 -316.65625 L 18.421875 -319.390625 L 16.15625 -319.28125 L 13.734375 -312.78125 L 5.96875 -218.234375 L 5.328125 -174.515625 L 12.84375 -112.078125 L 21.0625 -82.90625 L 31.28125 -59.734375 L 44.1875 -37.140625 L 63.046875 -23.046875 L 87.640625 -13.28125 L 100.453125 -11.625 Z M 110.59375 -8.921875 "/></g></g></g><g fill="#fefbef" fill-opacity="1"><g transform="translate(1332.687387, 1692.515281)"><g><path d="M 30.875 -5.953125 L 49.078125 -6.75 L 80.21875 -10.453125 L 111.09375 -16.421875 L 115.953125 -17.890625 L 118.34375 -20.921875 L 115.59375 -43.953125 L 111.765625 -153.34375 L 112.34375 -156.140625 L 125.75 -135.765625 L 146.328125 -89.703125 L 150.875 -86.125 L 158.09375 -86.984375 L 176.171875 -92.796875 L 197.109375 -97.5625 L 204.5625 -100.265625 L 210.421875 -100.96875 L 214 -105.515625 L 223.3125 -142.78125 L 243.6875 -202.421875 L 272.109375 -74.890625 L 277.34375 -61.78125 L 279.09375 -54.65625 L 281.8125 -47.21875 L 287.375 -42.84375 L 298.203125 -44.125 L 324.28125 -51.8125 L 364.75 -50.203125 L 396.5625 -52.15625 L 399.40625 -55.234375 L 398.109375 -66.078125 L 365.109375 -201.28125 L 320.734375 -336.0625 L 316.375 -345.609375 L 308.8125 -351.578125 L 293.9375 -353.484375 L 261.890625 -349.671875 L 248.625 -345.796875 L 212.1875 -340.546875 L 204.828125 -336.921875 L 194.734375 -317.875 L 189.359375 -305.34375 L 165.5625 -259.046875 L 144.59375 -285.375 L 127.484375 -302.125 L 105.328125 -319.15625 L 104.734375 -324.125 L 101.171875 -327.359375 L 82.171875 -329.21875 L 38.859375 -324.078125 L 19.125 -316.703125 L 13.953125 -310.140625 L 12.21875 -301.6875 L 13.5625 -282.609375 L 9.765625 -48.765625 L 12.875 -22.59375 L 12.578125 -9.734375 L 14.703125 -7.25 Z M 30.875 -5.953125 "/></g></g></g></svg>